<svg width="40" height="41" viewBox="0 0 40 41" fill="none" xmlns="http://www.w3.org/2000/svg">
<ellipse cx="20" cy="20.5747" rx="20" ry="19.6958" fill="#1D4C74"/>
<path d="M13.6314 16.3081H8.82721C8.61399 16.3081 8.44122 16.4809 8.44122 16.6941V32.1279C8.44122 32.3411 8.61399 32.5139 8.82721 32.5139H13.6314C13.8446 32.5139 14.0174 32.3411 14.0174 32.1279V16.6941C14.0174 16.4809 13.8446 16.3081 13.6314 16.3081Z" fill="#E9F5F6"/>
<path d="M11.231 8.63574C9.483 8.63574 8.06088 10.0563 8.06088 11.8024C8.06088 13.5493 9.483 14.9704 11.231 14.9704C12.9777 14.9704 14.3987 13.5492 14.3987 11.8024C14.3987 10.0563 12.9777 8.63574 11.231 8.63574Z" fill="#E9F5F6"/>
<path d="M25.8511 15.9248C23.9216 15.9248 22.4952 16.7543 21.6301 17.6968V16.6944C21.6301 16.4812 21.4573 16.3084 21.2441 16.3084H16.6433C16.4301 16.3084 16.2573 16.4812 16.2573 16.6944V32.1282C16.2573 32.3414 16.4301 32.5141 16.6433 32.5141H21.437C21.6502 32.5141 21.8229 32.3414 21.8229 32.1282V24.492C21.8229 21.9188 22.5219 20.9163 24.3156 20.9163C26.2692 20.9163 26.4244 22.5234 26.4244 24.6244V32.1282C26.4244 32.3415 26.5972 32.5142 26.8104 32.5142H31.6059C31.8191 32.5142 31.9918 32.3415 31.9918 32.1282V23.6625C31.9918 19.8363 31.2622 15.9248 25.8511 15.9248Z" fill="#E9F5F6"/>
</svg>
